# xmcd
#
# Track frame offsets:
#	150
#	16757
#	34862
#	54920
#	66615
#	87080
#	106617
#	123342
#	138672
#	152255
#
# Disc length: 2296 seconds
#
# Revision: 14
# Processed by: cddbd v1.5.2PL0 Copyright (c) Steve Scherf et al.
# Submitted via: EasyCDDAExtractor 15.3.0.1
#
DISCID=7508f60a
DTITLE=Mariah Carey - Merry Christmas
DYEAR=1994
DGENRE=Christmas
TTITLE0=Silent Night
TTITLE1=All I Want For Christmas Is You
TTITLE2=O Holy Night
TTITLE3=Christmas (Baby Please Come Home)
TTITLE4=Miss You Most (At Christmas Time)
TTITLE5=Joy To The World
TTITLE6=Jesus Born On This Day
TTITLE7=Santa Claus Is Comin' To Town
TTITLE8=Hark! The Herald Angels Sing, Gloria (In Excelsis Deo)
TTITLE9=Jesus Oh What A Wonderful Child
EXTD=YEAR: 1994 ID3G: 13
EXTT0=
EXTT1=
EXTT2=
EXTT3=
EXTT4=
EXTT5=
EXTT6=
EXTT7=
EXTT8=
EXTT9=
PLAYORDER=
